<?xml version="1.0" encoding="UTF-8" standalone="no"?>
<!-- Created with Inkscape (http://www.inkscape.org/) -->

<svg
   version="1.1"
   id="svg1"
   width="934.47626"
   height="1070.5243"
   viewBox="0 0 934.47622 1070.5243"
   sodipodi:docname="Ready-for-rain-3.svg"
   inkscape:version="1.3.2 (091e20ef0f, 2023-11-25)"
   xmlns:inkscape="http://www.inkscape.org/namespaces/inkscape"
   xmlns:sodipodi="http://sodipodi.sourceforge.net/DTD/sodipodi-0.dtd"
   xmlns="http://www.w3.org/2000/svg"
   xmlns:svg="http://www.w3.org/2000/svg">
  <defs
     id="defs1" />
  <sodipodi:namedview
     id="namedview1"
     pagecolor="#ffffff"
     bordercolor="#000000"
     borderopacity="0.25"
     inkscape:showpageshadow="2"
     inkscape:pageopacity="0.0"
     inkscape:pagecheckerboard="0"
     inkscape:deskcolor="#d1d1d1"
     showgrid="false"
     inkscape:zoom="0.97"
     inkscape:cx="535.56701"
     inkscape:cy="531.4433"
     inkscape:window-width="1920"
     inkscape:window-height="1011"
     inkscape:window-x="0"
     inkscape:window-y="0"
     inkscape:window-maximized="1"
     inkscape:current-layer="layer1" />
  <g
     inkscape:groupmode="layer"
     id="layer1"
     inkscape:label="Layer 1"
     transform="translate(-62.756273,-51.92628)">
    <path
       style="display:inline;fill:#b3b3b3"
       d="m 439.70458,115.89717 c 0.42219,-3.67412 -7.15279,-54.456516 -8.29313,-55.596856 -2.72736,-2.727363 -2.54118,0.692627 2.7418,50.366356 0.42896,4.03333 1.07495,7.815 1.43554,8.40371 1.22844,2.0056 3.74351,0.0665 4.11579,-3.17321 z"
       id="path7" />
    <path
       style="display:inline;fill:#0000ff"
       d="m 92.693845,478.55968 c 8.520135,-9.8394 16.337505,-16.96857 29.178085,-26.60942 17.46119,-13.11004 17.64338,-13.20522 40.63068,-21.22634 l 23.09083,-8.05725 h 24.32462 c 37.37614,0 43.37064,-1.13189 63.41529,-11.97416 9.16667,-4.95831 21.15617,-11.27031 26.64333,-14.02668 5.48717,-2.75637 19.34443,-11.14985 30.79392,-18.65218 l 20.81726,-13.6406 35.20609,-2.79333 c 19.36334,-1.53633 42.10608,-3.15236 50.53941,-3.59117 l 15.33334,-0.79785 26.53705,-12.09552 26.53705,-12.09551 11.13162,0.90322 11.13162,0.90321 30.40387,-10.60169 30.40388,-10.60168 25.92746,-2.13192 25.92746,-2.13192 44.66667,4.90469 44.66667,4.90469 16.91455,-8.1084 c 15.32145,-7.34471 19.00734,-8.51473 39.13434,-12.4225 21.5832,-4.1905 22.64792,-4.27069 37.16358,-2.79907 8.21909,0.83327 21.80864,1.51812 30.199,1.52188 11.16601,0.005 19.45601,0.89853 30.92678,3.33334 8.61937,1.82956 16.5424,3.32648 17.60675,3.32648 1.06434,0 -11.38787,-13.32377 -27.67158,-29.60839 -27.44127,-27.44278 -32.04479,-31.41327 -62.94008,-54.28504 -27.71238,-20.51547 -37.7854,-27.08822 -59.73491,-38.97765 -36.11996,-19.56516 -75.45161,-35.07264 -113.59844,-44.789 -27.42164,-6.98455 -28.82623,-7.19727 -68,-10.29837 -36.58505,-2.89618 -43.07347,-3.05693 -76.00001,-1.88287 -19.8,0.706 -41.7,2.13713 -48.66667,3.18028 -15.58537,2.33367 -50.41317,14.57815 -85.25939,29.97482 -22.75287,10.05326 -27.22364,12.65498 -59.75926,34.77621 C 280.97311,205.24049 264.43602,216 263.56562,216 c -0.8704,0 -19.07699,17.55 -40.45908,39 l -38.87652,39 -21.15888,32.66667 c -20.1059,31.04101 -21.99947,34.55773 -38.05026,70.66666 -9.29026,20.9 -23.22052,50.3665 -30.956132,65.4811 C 80.722414,488.88401 79.277144,492 80.527804,492 c 0.29029,0 5.765008,-6.04814 12.166041,-13.44032 z"
       id="path6" />
    <path
       style="display:inline;fill:#ffcc00"
       d="m 468.66013,662.66916 c 5.45275,-2.07313 2.62536,-4.00249 -5.86547,-4.00249 -8.08459,0 -9.92555,-1.07947 -13.45663,-7.89043 -1.78801,-3.44882 -2.26008,-17.51365 -0.76752,-22.86755 l 0.9038,-3.24202 -2.73714,3.14771 c -2.14966,2.47211 -2.73714,4.98534 -2.73714,11.70949 0,10.28759 2.18509,16.04527 7.921,20.87172 4.57756,3.85176 10.47966,4.65341 16.7391,2.27357 z"
       id="path5" />
    <path
       style="display:inline;fill:#ffff00"
       d="m 620.22839,439.12668 c 3.21121,-2.90611 3.07847,-5.60674 -0.46077,-9.37408 -5.16867,-5.5018 -13.10091,-3.4377 -13.10091,3.40908 0,7.07709 8.29924,10.72745 13.56168,5.965 z"
       id="path4" />
    <path
       id="path3"
       style="display:inline;fill:#ffb380"
       d="m 540.87932,481.6255 c -3.05884,0.0369 -3.09675,2.35568 0.12109,6.20312 2.8963,3.46298 20.83152,13.37469 21.45899,11.85938 0.25233,-0.60936 -1.11556,-3.17152 -3.03906,-5.69336 -4.73862,-6.21265 -11.42927,-11.12999 -16.53125,-12.15039 -0.77206,-0.15441 -1.44332,-0.22558 -2.00977,-0.21875 z m 36.92187,32.12891 c -0.21433,0.21433 2.05269,3.34349 5.03711,6.95507 8.85184,10.71193 12.27725,18.63031 12.38086,28.62305 0.11209,10.81074 -4.24698,19.47043 -14.84765,29.49609 -3.95394,3.73948 -6.88634,7.10195 -6.51563,7.47266 0.37071,0.37071 2.59454,0.004 4.94141,-0.81445 2.34686,-0.81812 4.82498,-1.48633 5.50586,-1.48633 0.68089,0 -2.1089,6.2377 -6.19922,13.86328 -4.09032,7.62558 -7.4375,14.2269 -7.4375,14.66797 0,0.44108 1.35,0.80139 3,0.80078 l 3,-0.002 -0.39844,35.66797 c -0.35317,31.52273 -0.0114,38.84509 2.94922,63.00195 1.84245,15.03331 3.75553,33.18204 4.25,40.33203 0.49447,7.14999 1.28853,13 1.76563,13 0.47709,0 3.61463,-2.8487 6.97265,-6.33203 3.35803,-3.48333 8.68338,-10.23334 11.83399,-15 3.1506,-4.76667 14.89063,-18.06637 26.08984,-29.55469 23.60028,-24.20952 25.03158,-26.81655 21.20117,-38.61523 -2.70106,-8.31995 -6.00491,-14.28162 -12.23242,-22.07032 -4.33156,-5.41743 -4.37199,-5.58425 -1.48828,-6 7.26999,-1.04812 14.25429,-19.75304 15.35156,-41.11328 1.55465,-30.26411 -10.14696,-55.10109 -33.45312,-71.00781 -7.82635,-5.34156 -40.89705,-22.69474 -41.70704,-21.88476 z M 722.0258,718.22316 c -0.41321,0.082 -1.1246,1.12864 -2.15429,2.73632 -6.22396,9.71758 -23.17731,17.98753 -60.72852,29.62305 -11.10477,3.4409 -21.80596,7.31444 -23.7793,8.60742 -4.33862,2.84278 -7.83454,10.24869 -10.86132,23.00977 -2.13592,9.00516 -2.13147,10.06662 0.0664,19.10937 1.27981,5.2656 1.91979,9.97415 1.42188,10.46485 -0.49792,0.4907 -2.80023,-1.3574 -5.11524,-4.10743 -2.31499,-2.75002 -4.62918,-5.00003 -5.14257,-5 -0.51341,3e-5 -1.12374,3.44936 -1.35743,7.66602 l -0.42578,7.66797 -3.95703,-8 -3.95703,-8 -0.68555,9.14453 -0.68359,9.14453 -3.66602,-7.50781 c -5.50932,-11.28053 -6.4544,-17.09108 -4.1914,-25.7793 1.05743,-4.05973 1.70056,-7.60412 1.42968,-7.875 -0.27086,-0.27087 -2.16008,3.43451 -4.19921,8.23242 -3.25292,7.65383 -3.5966,9.74032 -2.80274,17.01563 2.30347,21.11016 12.92747,59.00727 24.37695,86.95703 8.22861,20.08714 26.95913,56.88239 28.47852,55.94336 0.68223,-0.42164 1.24023,-10.38635 1.24023,-22.14453 0,-24.58243 2.67822,-40.86402 9.86524,-59.99805 6.01307,-16.00858 11.40088,-24.42999 26.19531,-40.93555 19.43832,-21.68653 26.21414,-32.89855 32.36719,-53.55468 4.05685,-13.61904 4.35973,-15.14169 6.89258,-34.64258 1.74909,-13.46661 2.28211,-17.95779 1.37304,-17.77734 z" />
    <path
       id="path2"
       style="display:inline;fill:#803300"
       d="m 542.66448,411.16261 c -16.08599,0.38827 -28.15514,1.57172 -32.5625,3.46094 -5.67819,2.43394 -5.83225,2.65597 -4.82032,6.94531 3.05703,12.95805 5.85525,22.12561 8.08789,26.50195 5.02166,9.84325 24.3945,23.8792 33.00977,23.91602 2.58059,0.011 2.84071,-0.37373 1.69336,-2.51758 -0.74507,-1.39218 -4.5168,-5.99234 -8.38086,-10.22266 -3.86406,-4.23029 -5.82603,-7.04174 -4.35938,-6.24609 3.05331,1.65637 9.00367,7.89594 14.99415,15.72266 3.17393,4.14684 5.84074,5.92951 11.5664,7.73437 4.09257,1.29007 7.43945,2.91547 7.43945,3.61133 0,0.69586 -2.7,1.26367 -6,1.26367 -3.66917,0 -6,0.60319 -6,1.55078 0,3.72169 16.9004,29.5426 18.63477,28.4707 1.66887,-1.0314 32.92924,14.01084 42.18359,20.29883 22.5514,15.3229 33.21027,31.19248 36.41211,54.21289 3.14785,22.63216 0.84674,40.47662 -7.21875,55.95508 l -4.77148,9.15625 6.56641,6.94336 c 7.64375,8.08214 11.82139,15.6564 13.45312,24.39063 1.06593,5.70562 0.8275,6.71745 -2.83789,12.04492 -2.20097,3.19898 -12.71794,14.62732 -23.37109,25.39648 -11.95582,12.086 -22.20996,23.86513 -26.79297,30.77539 -4.08369,6.15736 -10.61258,14.63839 -14.50782,18.84571 -3.89522,4.2073 -7.08203,8.28322 -7.08203,9.05859 0,2.52944 2.78402,3.2056 5.08399,1.23437 5.835,-5.00097 9.58203,-2.77792 9.58203,5.6836 0,7.2039 1.86787,7.58279 4.6543,0.94531 l 2.36328,-5.62891 0.95117,5.01563 c 1.72589,9.1082 2.31333,8.25823 8.54687,-12.34961 4.10028,-13.55532 7.31775,-19.11436 13.13868,-22.69922 2.39002,-1.47192 13.94639,-5.72062 25.67968,-9.4414 29.82369,-9.4575 48.92269,-18.84764 57.56055,-28.29883 4.66224,-5.10124 7.20027,-9.28087 8.36719,-13.77539 0.92128,-3.54847 2.16655,-7.95182 2.76758,-9.78516 2.08912,-6.37258 1.42616,9.63632 -0.74414,17.96875 -1.12618,4.32367 -1.78286,8.54782 -1.46094,9.38672 0.62753,1.63533 -3.74188,37.79068 -5.63672,46.64453 -2.17774,10.17573 -6.01881,20.06552 -12.61133,32.4707 -5.33315,10.03544 -6.26313,12.69948 -4.76758,13.64649 1.40352,0.88873 1.1439,1.18184 -1.0625,1.19726 -1.60672,0.0112 -3.22807,0.51753 -3.60351,1.125 -0.37543,0.60747 2.58907,0.83161 6.58789,0.5 3.99881,-0.33161 7.26953,-0.26212 7.26953,0.15235 0,0.41447 -3.55486,2.64674 -7.90039,4.96289 -9.2094,4.90855 -20.90875,16.04618 -28.3457,26.98437 -17.19859,25.29551 -24.93125,68.2181 -19.14844,106.29492 4.15027,27.32756 12.20839,47.3472 31.16992,77.44339 5.81336,9.2271 10.98808,18.0961 11.5,19.709 1.13316,3.5703 -4.29941,13.7948 -14.81445,27.8808 -9.44425,12.6516 -15.56904,17.0511 -25.44532,18.2754 -4.22464,0.5237 -9.49166,1.7039 -11.70312,2.6231 -5.61702,2.3348 -15.61728,14.0683 -11.99024,14.0683 0.36032,0 3.2709,-1.9965 6.46875,-4.4375 5.87241,-4.4825 16.04227,-8.2078 20.08594,-7.3574 1.80846,0.3803 1.46725,1.3426 -1.92773,5.4492 -5.33343,6.4513 -3.31275,11.0003 2.33203,5.25 3.84336,-3.9152 10.62578,-8.2383 12.92578,-8.2383 2.46845,0 2.54888,0.5487 0.91602,6.2422 -0.66631,2.3233 -0.83116,4.6064 -0.36524,5.0723 1.94816,1.9482 9.10077,-9.4663 20.41797,-32.586 l 12.04492,-24.6054 -1.09765,-14.0606 c -0.60343,-7.7334 -0.91968,-18.2612 -0.70118,-23.3945 0.48771,-11.4578 3.66657,-31.27109 5.75,-35.84375 l 1.53907,-3.38086 6.14453,3.5 c 7.07248,4.02909 12.14453,8.27263 12.14453,10.16211 0,2.08047 16.48894,26.2557 22.74805,33.3516 7.67126,8.6969 21.22917,18.7837 32.61718,24.2656 33.62943,16.1884 89.68287,14.3178 126.28516,-4.2129 28.18815,-14.2709 56.39765,-42.9463 66.88867,-67.99414 7.81022,-18.64728 10.66189,-32.31059 10.54297,-50.51563 -0.11855,-18.14917 -2.63559,-32.02577 -8.56055,-47.20898 -4.79934,-12.29877 -18.7939,-41.62994 -19.51757,-40.90625 -0.28648,0.28648 2.73844,7.93125 6.72265,16.98632 8.71243,19.80108 12.29216,30.3988 14.94531,44.26563 2.59545,13.5652 2.54475,35.63249 -0.11132,48.58789 -7.08583,34.56195 -31.16612,65.44606 -64.02539,82.11716 -18.79465,9.5354 -32.79305,12.8275 -58.53516,13.7676 -34.13956,1.2467 -61.19028,-6.8086 -84.13281,-25.0527 -12.2399,-9.7333 -25.14927,-25.42297 -28.25977,-34.34573 -0.83136,-2.38484 -2.73374,-5.88736 -4.22656,-7.78516 -1.49281,-1.89781 -2.71485,-4.01825 -2.71485,-4.71094 0,-0.6927 -1.51839,-5.05648 -3.375,-9.69726 l -3.375,-8.4375 4.89258,-8.90235 c 3.22848,-5.87347 5.24474,-8.33436 5.92578,-7.23242 1.52084,2.46077 5.92562,-5.43052 10.10938,-18.11133 1.93558,-5.86665 3.74313,-10.92319 4.01758,-11.23632 0.27445,-0.31313 1.37426,0.58687 2.44336,2 1.85373,2.45026 1.94588,2.39697 1.98632,-1.14063 0.0233,-2.04022 0.94297,-5.86344 2.04297,-8.49609 1.46624,-3.5092 2.00323,-9.99045 2.01172,-24.28906 0.006,-10.72708 0.39076,-22.66991 0.85547,-26.53907 0.81106,-6.75292 0.9447,-6.94462 3.32227,-4.79297 2.40123,2.1731 2.47711,1.71681 2.50586,-14.96484 l 0.0312,-17.20703 2.74023,3.33203 2.74023,3.33398 -0.80859,-23.33398 c -0.44515,-12.83331 -1.66205,-29.63205 -2.70508,-37.33203 -1.04303,-7.69998 -2.26959,-17.0013 -2.72461,-20.66797 l -0.82617,-6.66602 2.76172,3.14844 c 4.10573,4.67864 3.58191,1.6085 -3.39062,-19.85742 -4.38526,-13.50064 -5.71099,-19.21881 -4.61133,-19.89844 1.07159,-0.66228 -0.11079,-4.07455 -3.8711,-11.17187 -4.201,-7.92914 -4.94182,-10.22071 -3.30468,-10.22071 1.54383,0 0.65586,-2.0729 -3.3086,-7.7246 -6.11441,-8.71673 -6.56281,-10.21923 -2.75195,-9.22266 3.68505,0.96366 3.37897,0.057 -1.99609,-5.89258 -2.56513,-2.8393 -6.04646,-8.01122 -7.73438,-11.49414 -1.68793,-3.48292 -4.989,-8.97252 -7.33594,-12.19922 -5.30307,-7.29093 -5.60341,-9.90827 -0.93359,-8.13281 1.83333,0.69703 3.33398,1.05315 3.33398,0.79297 0,-0.26018 -4.22039,-7.76797 -9.3789,-16.68555 -5.15852,-8.91758 -9.0131,-16.80925 -8.56446,-17.53516 0.44864,-0.7259 -1.12718,-3.53162 -3.50195,-6.23632 -4.83715,-5.50923 -17.17351,-30.17882 -17.20312,-34.40235 -0.0105,-1.50333 0.55439,-3.30828 1.25586,-4.00976 0.81164,-0.81166 0.52278,-4.57664 -0.79493,-10.35352 -1.90364,-8.3457 -1.89183,-9.27296 0.12891,-11.50586 2.07073,-2.28812 1.92288,-2.59783 -2.53906,-5.35547 -5.82201,-3.59819 -5.91139,-4.70651 -0.53125,-6.58203 4.13444,-1.44128 4.16423,-1.51117 1.74218,-4.1875 -2.40513,-2.65766 -2.39684,-2.73965 0.40625,-3.47265 2.58983,-0.67726 2.06049,-1.5333 -5.4082,-8.75586 -8.70915,-8.42215 -8.72789,-11.51916 -0.0371,-5.93164 7.32879,4.71182 14.48972,6.65351 20.89453,5.66211 14.4836,-2.24197 29.66477,-14.83869 33.51758,-27.8125 7.88513,-26.55216 -8.69081,-48.87404 -34.0625,-45.86915 -8.95043,1.06005 -13.74412,3.84019 -25.01367,14.50391 -10.35848,9.80164 -14.2841,11.10114 -14.19141,4.69922 0.0289,-1.99652 -0.48473,-3.63086 -1.14062,-3.63086 -0.65589,0 -3.97842,-1.88528 -7.38477,-4.19141 -3.40633,-2.30611 -13.09403,-6.54785 -21.52734,-9.42578 -14.99745,-5.11796 -16.03497,-5.27677 -47.33399,-7.24609 -20.47899,-1.28853 -40.58199,-1.69491 -56.66796,-1.30664 z m -26.25782,6.47265 c 1.04059,-0.0114 2.13641,0.10734 3.25977,0.37305 3.33229,0.7882 4.14357,5.6494 1.40039,8.39258 -2.29192,2.29192 -11.64366,2.05183 -12.55469,-0.32227 -1.7491,-4.55806 2.27537,-8.38171 7.89453,-8.44336 z m 202.91602,3.69727 c 8.66128,0 14.71624,2.25425 19.24219,7.16211 l 3.23242,3.50586 -7.23242,0.006 c -10.24894,0.0105 -16.64002,2.13258 -22.57032,7.49023 -6.06634,5.48059 -7.3269,9.92098 -4.83203,17.02344 2.22164,6.32456 1.54251,9.39855 -2.83984,12.8457 -4.72,3.71275 -10.69103,3.17556 -16.94141,-1.52148 v 0.002 c -2.90701,-2.18459 -5.54103,-4.22853 -5.85351,-4.54101 -0.31248,-0.31248 1.61566,-2.98658 4.28515,-5.94141 2.66951,-2.95483 4.85352,-6.16021 4.85352,-7.125 0,-0.96479 0.91512,-4.83461 2.0332,-8.59961 3.87004,-13.03183 13.40621,-20.30664 26.62305,-20.30664 z m -106.32422,0.0918 c 3.83092,-0.14071 7.32638,2.08386 11.72266,6.71679 10.66995,11.24437 12.61132,13.41106 12.61132,14.07813 0,0.37472 -2.29584,0.29466 -5.10351,-0.17969 -3.85334,-0.65101 -5.54513,-0.33262 -6.90234,1.30274 -2.12904,2.56532 -8.47292,6.01339 -10.92774,5.93945 -0.95309,-0.0287 -3.53242,-0.85765 -5.73242,-1.8418 -4.70268,-2.10368 -17.75338,-15.43421 -15.12891,-15.45312 0.98776,-0.007 4.44751,-2.12024 7.68946,-4.69727 4.74911,-3.77506 8.39126,-5.74108 11.77148,-5.86523 z m -67.95898,17.43554 c 6.42874,-0.0135 31.50423,15.7671 53.62695,33.86524 8.06249,6.59577 21.32816,19.36593 19.94531,19.20117 -0.33602,-0.04 -8.412,-6.38275 -17.94531,-14.0957 -9.53332,-7.71298 -21.35922,-16.53011 -26.2793,-19.59375 -4.92005,-3.06366 -8.97007,-6.24796 -9,-7.07617 -0.0299,-0.82823 -5.22,-3.82758 -11.5332,-6.66602 -6.31319,-2.83844 -10.53249,-5.35158 -9.37695,-5.58398 0.16784,-0.0338 0.35512,-0.0503 0.5625,-0.0508 z m 52.46875,4.80664 c 0.61673,0.015 3.35218,1.55537 6.625,3.75782 7.9335,5.33885 10.30876,5.56704 18.18164,1.75586 3.20313,-1.55061 6.12365,-2.51893 6.49023,-2.15235 0.67586,0.67586 -11.11023,7.71435 -12.64062,7.54883 -0.45764,-0.0495 -3.6549,-0.85047 -7.10547,-1.7793 -5.43026,-1.46169 -11.54276,-6.19253 -11.68164,-9.04101 -0.003,-0.0625 0.0427,-0.092 0.13086,-0.0898 z m -52.52539,3.14063 c 0.91874,-0.0138 4.40803,1.96241 9.33593,5.72656 13.24329,10.1158 31.14238,29.70185 38.19922,41.79883 2.25904,3.87249 -0.57533,1.17266 -5.59765,-5.33203 -5.76836,-7.47091 -27.65919,-29.23118 -37.5879,-37.36524 -3.971,-3.25322 -5.16027,-4.81592 -4.3496,-4.82812 z m -67.625,165.19336 c -4.20034,0 -2.92079,4.20184 1.99218,6.54492 4.57184,2.18039 5.78777,3.60725 10.89453,12.78711 2.26039,4.06326 3.97764,9.53042 4.39844,14 l 0.68945,7.33398 27.09571,18.19727 c 14.90261,10.00791 29.90329,20.59393 33.33398,23.52539 5.69453,4.86584 6.43831,5.1522 8.54297,3.28906 1.26796,-1.12245 3.59263,-5.40847 5.16602,-9.52539 1.98303,-5.18879 3.00939,-11.37183 3.34375,-20.15234 1.25324,-32.91087 1.38979,-50.53864 0.38867,-49.91992 -0.6029,0.37262 -3.0191,4.28423 -5.36914,8.69336 -2.35005,4.40913 -6.64566,10.38979 -9.54688,13.29101 -4.30648,4.30649 -4.97918,5.63062 -3.66601,7.21289 4.62573,5.57368 -4.95538,6.13476 -25.4375,1.48828 -19.38669,-4.39797 -26.14122,-7.83222 -31.45703,-15.99218 -2.34999,-3.60732 -3.94731,-7.08301 -3.55079,-7.72461 1.01597,-1.64387 -3.20345,-7.7168 -5.36132,-7.7168 -0.98419,0 -3.31318,-1.19936 -5.17774,-2.66602 -1.86457,-1.46666 -4.6912,-2.66601 -6.27929,-2.66601 z m -11.2461,4.53906 c -0.27458,0.006 -0.53162,0.049 -0.77734,0.12695 -2.44377,0.77562 -2.49863,1.12413 -0.72461,4.55469 3.16417,6.11883 11.14109,12.36443 14.5,11.35156 1.58992,-0.47944 3.33376,-1.27795 3.875,-1.77343 0.54124,-0.49548 -2.61337,-4.06764 -7.00977,-7.9375 -5.19461,-4.57249 -7.94118,-6.36363 -9.86328,-6.32227 z m -2.20508,13.56836 c -0.0573,0.002 -0.10311,0.0124 -0.13672,0.0332 -2.06603,1.27688 -1.11203,4.35274 2.5625,8.25977 5.59488,5.94888 8.65612,7.27454 10.66797,4.62109 0.91667,-1.20899 1.6323,-2.53352 1.5918,-2.94336 -0.14208,-1.43757 -12.90995,-10.0388 -14.68555,-9.9707 z m -0.11132,13.68945 c -0.22975,0.0173 -0.38914,0.0845 -0.46485,0.20704 -2.67434,4.32716 9.21093,12.72537 14.49219,10.24023 2.0832,-0.98027 2.19121,-1.44228 0.66601,-2.83008 -3.66206,-3.33216 -12.47248,-7.78426 -14.69335,-7.61719 z m 124.0625,198.86914 c -0.50974,0 -5.07627,4.44196 -10.14649,9.8711 -16.49496,17.66265 -22.46132,34.6819 -21.31445,60.79492 0.74571,16.97914 3.65795,28.71151 12.86914,51.83203 3.89064,9.76572 6.65743,20.34412 10.06445,38.48434 2.58427,13.7595 5.57076,28.6176 6.63672,33.0176 1.06596,4.4 1.95826,10.288 1.98438,13.084 0.0463,4.9578 -0.15813,5.1762 -8.28516,8.8516 -4.58334,2.0728 -12.53269,5.0793 -17.66602,6.6796 -14.18133,4.4215 -42.68994,10.4318 -46.91601,9.8907 -9.78528,-1.2528 -14.81775,-0.6921 -20.48242,2.2871 -4.94255,2.5995 -5.45042,3.199 -3.03711,3.5781 1.5937,0.2504 5.1937,-0.6728 8,-2.0508 3.22279,-1.5825 6.52901,-2.2258 8.97656,-1.7461 l 3.875,0.7598 -3.64453,1.9473 c -4.43119,2.3673 -7.95652,7.7908 -3.92774,6.0429 5.52033,-2.3951 20.14088,-5.8418 25.08399,-5.914 l 5.25976,-0.076 -6.10156,3.8691 c -6.8101,4.3189 -9.80117,7.7289 -5.62891,6.418 1.398,-0.4393 8.88292,-3.4124 16.63282,-6.6074 7.74991,-3.195 23.4831,-8.4547 34.96289,-11.6875 11.4798,-3.2329 21.14917,-6.596 21.48633,-7.4746 0.33717,-0.8787 -0.28707,-5.7048 -1.38672,-10.7246 -4.77661,-21.8045 -3.57556,-50.1046 2.70898,-63.85355 6.67626,-14.60583 16.34107,-21.60832 31.58985,-22.88672 6.8904,-0.57767 9.21484,-1.2694 9.21484,-2.74218 0,-1.08331 -6.53692,-15.54698 -14.52734,-32.14063 -13.8545,-28.77152 -23.39089,-52.25722 -31.60743,-77.83789 -2.06103,-6.41665 -4.16408,-11.66602 -4.67382,-11.66602 z" />
    <path
       style="fill:#000000"
       d="m 656.00004,1120 c -1.75406,-3.2775 -3.89366,-3.3544 -9.26824,-0.3333 -4.0617,2.2831 -4.20051,2.2686 -6.45172,-0.6728 -2.09994,-2.7438 -2.68319,-2.8617 -6.68369,-1.3517 -5.68078,2.1442 -7.32886,-0.014 -6.30703,-8.2592 1.01252,-8.17 6.36273,-13.4064 17.74499,-17.3675 17.11584,-5.9564 22.47342,-9.0359 29.57403,-16.9991 3.76796,-4.2257 8.42019,-10.8888 10.33829,-14.8069 l 3.48745,-7.1238 -3.51925,-6.8762 c -5.4653,-10.6785 -22.69272,-40.4556 -29.81989,-51.54283 -7.34427,-11.42496 -14.23464,-16 -24.09724,-16 -11.46033,0 -20.45956,7.32017 -25.79131,20.9792 -2.59686,6.65273 -3.0146,10.28973 -3.10358,27.02083 -0.0575,10.816 0.74547,24.7786 1.82268,31.6935 1.74471,11.1997 1.72416,12.5616 -0.21888,14.5046 -1.22277,1.2228 -12.65151,4.6058 -26.59216,7.8716 -14.16667,3.3187 -31.87099,8.5734 -42.09966,12.4954 -9.70852,3.7225 -18.46222,6.7682 -19.45264,6.7682 -0.99043,0 -2.51411,-1.5656 -3.38595,-3.4791 -1.4931,-3.277 -1.95076,-3.4203 -7.88068,-2.4688 -10.65145,1.7092 -11.5889,1.5637 -12.07533,-1.8745 -0.41929,-2.9636 -0.8861,-3.1193 -7.66667,-2.557 -6.11397,0.5071 -7.22019,0.2551 -7.22019,-1.6442 0,-4.1932 7.51478,-12.6299 14.76948,-16.5814 6.77863,-3.6921 8.48045,-3.9961 27.23052,-4.864 12.20703,-0.565 22.85742,-1.7878 27.33333,-3.1383 16.3841,-4.9435 32.72967,-10.4483 33.73641,-11.3617 0.58836,-0.5337 -0.74158,-7.9466 -2.95542,-16.473 -2.21383,-8.5264 -5.59392,-23.7208 -7.5113,-33.7654 -1.91738,-10.04458 -5.90002,-24.90707 -8.85032,-33.02774 C 550.03813,938.35552 549.05955,934.14041 548.3718,914 c -1.15433,-33.80401 3.36719,-44.98031 30.69733,-75.8778 l 6.40243,-7.23812 -2.73576,-14.17639 c -1.50467,-7.79702 -2.74395,-16.39594 -2.75397,-19.10871 -0.0297,-8.04269 -1.28046,-11.12302 -4.14708,-10.21319 -3.04921,0.96779 -3.0666,0.56909 -0.31442,-7.20684 2.0906,-5.90672 2.02568,-7.38093 -1.47373,-33.46141 -2.01337,-15.00536 -4.19603,-28.69054 -4.85034,-30.4115 l -1.18966,-3.12904 -3.34041,3.74483 c -2.96312,3.32188 -3.49028,3.49519 -4.66737,1.53449 -6.67195,-11.11355 -22.01897,-25.12412 -39.33212,-35.90699 -5.13333,-3.19711 -13.23333,-8.61755 -18,-12.04542 -5.59335,-4.02237 -10.72112,-6.56619 -14.46017,-7.1735 -5.2651,-0.85517 -6.17715,-0.57099 -10,3.11585 -5.21928,5.0336 -9.98085,6.88707 -17.69284,6.88707 -17.02939,0 -28.57402,-18.50067 -25.27452,-40.50329 1.1491,-7.66277 7.07227,-14.16337 12.90527,-14.16337 2.16661,0 4.21956,0.75 4.56213,1.66666 0.34256,0.91667 0.77373,7.18725 0.95815,13.93463 0.22768,8.33023 0.92538,12.8239 2.17367,14 1.55415,1.46426 1.73378,0.49522 1.16189,-6.26796 -0.37206,-4.4 -0.26738,-9.5 0.23261,-11.33333 0.5,-1.83334 0.42727,-6.33334 -0.16161,-10 -0.95552,-5.94956 -0.7569,-6.92664 1.84653,-9.0835 1.60447,-1.32926 4.60434,-2.75426 6.66638,-3.16667 3.34046,-0.66809 3.74918,-1.31635 3.74918,-5.94654 0,-6.32502 -8.10469,-83.25965 -12.83139,-121.80329 -1.88853,-15.4 -3.9272,-34.33443 -4.53035,-42.0765 -1.61731,-20.75949 -6.6774,-65.73992 -7.48692,-66.55312 -1.81191,-1.82012 -29.50529,-1.44104 -42.77342,0.58551 -38.72329,5.91453 -77.73898,20.96923 -111.71127,43.10519 -18.68129,12.17253 -28.66667,21.08039 -28.66667,25.57327 0,5.08867 -3.94516,9.81465 -7.16248,8.58005 -2.04129,-0.78332 -2.35771,-1.96685 -1.81444,-6.78668 0.53001,-4.70219 0.18731,-6.08982 -1.76154,-7.13281 -3.93208,-2.10439 -42.22642,-1.56186 -54.53258,0.77258 -35.27562,6.69167 -73.06157,28.41436 -109.127279,62.73596 -8.635133,8.21754 -11.576481,11.99243 -13.394265,17.19002 -2.420632,6.92132 -5.389308,8.89864 -8.938147,5.95337 -2.877515,-2.38813 -2.349774,-6.69742 1.290858,-10.54055 1.787474,-1.8869 4.804287,-8.46158 6.763327,-14.73963 16.753771,-53.69005 28.424276,-84.58467 44.574746,-118 39.61578,-81.96509 97.98846,-149.14293 168.38513,-193.785 34.99107,-22.18961 103.82468,-54.21534 129.71668,-60.35238 11.05896,-2.62125 11.32997,-2.91331 11.3601,-12.24286 0.0147,-4.55753 -1.27343,-19.218734 -2.86255,-32.580448 -2.34835,-19.745472 -2.57243,-24.675842 -1.19684,-26.333333 2.35222,-2.834253 14.11803,-2.810567 15.20829,0.03062 0.43687,1.13846 2.56666,13.634716 4.73287,27.769458 2.1662,14.134743 4.70326,27.377873 5.63789,29.429173 1.87468,4.11447 1.27746,4.09784 26.45358,0.73675 4.76667,-0.63637 29.36667,-0.97798 54.66667,-0.75915 42.41908,0.3669 60.58433,1.54593 83.33334,5.40881 2.2,0.37357 6.1,1.01916 8.66667,1.43464 7.07878,1.14588 36.79276,8.38753 47.33333,11.53569 17.10322,5.10824 43.63119,15.68852 62.58661,24.96172 16.49099,8.06758 23.14484,11.61663 40.08007,21.37806 15.43817,8.89853 47.33745,31.08716 58.51425,40.70159 0.8525,0.73333 5.43555,4.62103 10.18454,8.63933 25.36129,21.4591 57.99016,54.33318 83.67089,84.29969 7.81723,9.12182 12.3871,13.32395 15.66727,14.4065 5.14749,1.69883 7.42017,6.62552 4.61535,10.00512 -2.42979,2.92773 -4.37474,2.45143 -8.73617,-2.13942 -6.057,-6.3756 -14.8493,-10.1677 -41.71917,-17.99341 -24.96867,-7.272 -39.90341,-9.23888 -69.53029,-9.15705 -18.54158,0.0512 -23.88642,0.54707 -34.00001,3.15421 -14.27145,3.67899 -47.03989,17.75662 -50.29711,21.60811 -2.18466,2.58324 -2.162,2.89896 0.46271,6.44908 3.04319,4.11613 2.93051,8.48022 -0.23469,9.08979 -2.02252,0.3895 -4.48566,-1.62721 -8.94538,-7.32408 -2.98451,-3.81243 -22.64647,-8.96053 -44.80475,-11.73123 -14.91679,-1.86522 -53.8028,-2.64288 -64.84745,-1.29684 -17.51078,2.13407 -32.46531,4.84753 -40.00001,7.25791 -1.83333,0.58649 -8.43333,2.68199 -14.66666,4.65666 -14.22662,4.50688 -30.07588,12.70768 -29.7857,15.41185 0.11788,1.09841 0.64288,3.94711 1.16667,6.33044 0.91718,4.17328 0.79724,4.33334 -3.24731,4.33334 -3.25924,0 -4.4851,-0.75075 -5.47432,-3.35259 -4.54703,-11.95958 -13.49844,-14.99246 -29.12758,-9.86886 -11.0279,3.61521 -34.4429,14.57161 -38.73797,18.12638 -2.82552,2.3385 -3.17643,3.64595 -2.95541,11.01161 0.13793,4.59693 1.75312,20.14627 3.58931,34.55409 4.04543,31.74288 5.55194,45.43596 7.20955,65.52937 1.74435,21.14499 11.92767,121.00878 12.88247,126.33333 0.42738,2.38333 1.3696,4.33333 2.09383,4.33333 4.92814,0 11.22857,5.23113 16.74652,13.9043 7.16605,11.26366 8.30912,12.26377 16.9501,14.83023 12.87511,3.82403 22.90331,4.82395 27.81164,2.77312 7.3958,-3.09016 14.43634,-15.69492 7.54486,-13.50765 -3.13574,0.99525 -3.52673,-0.95969 -0.66667,-3.33333 1.1,-0.91292 2.00257,-2.63639 2.00571,-3.82993 0.003,-1.19354 1.83325,-4.87007 4.06691,-8.17007 2.23366,-3.3 4.95559,-7.66758 6.04874,-9.70573 1.97807,-3.6881 1.97016,-3.70138 -1.66249,-2.78964 l -3.65002,0.9161 3.03157,-3.85402 3.03157,-3.85402 -3.45564,-2.75543 -3.45564,-2.75543 8.71124,-7.2062 c 4.79119,-3.9634 10.95003,-10.45906 13.68632,-14.4348 4.42914,-6.43538 4.9728,-8.12646 4.95434,-15.41082 -0.0168,-6.60905 -0.76789,-9.45716 -3.90679,-14.81328 -5.72467,-9.76841 -14.55165,-18.58934 -27.71552,-27.69653 -6.42966,-4.44824 -11.6903,-8.55611 -11.6903,-9.1286 0,-0.57248 -1.5,-2.6594 -3.33333,-4.6376 -1.83333,-1.9782 -3.33333,-4.31612 -3.33333,-5.19538 0,-0.87926 -1.2,-2.68464 -2.66667,-4.01195 -1.46667,-1.32732 -2.66667,-3.84598 -2.66667,-5.59703 0,-2.20218 -3.19669,-6.3519 -10.36877,-13.46001 -7.17617,-7.11217 -11.03612,-12.12373 -12.53615,-16.2763 -1.19206,-3.3 -4.06431,-11.1 -6.38277,-17.33333 -6.2264,-16.74005 -4.71913,-20.62014 10.31158,-26.54469 6.06716,-2.39145 10.26898,-2.60718 52.51159,-2.69605 25.2542,-0.0531 50.40371,0.4723 55.88779,1.16762 9.51502,1.20638 28.04045,6.30567 36.57674,10.06806 2.2,0.96966 8.5,3.7189 14,6.10944 5.5,2.39053 10.39042,4.93399 10.86759,5.65213 0.49078,0.73861 3.38621,-0.73488 6.66667,-3.3927 10.55453,-8.55125 16.38185,-10.51196 31.2421,-10.51196 14.42051,0 20.17644,1.9824 27.3977,9.43605 18.22489,18.81141 15.05433,50.91882 -6.60077,66.84416 -7.37569,5.42414 -17.42553,10.1237 -23.90662,11.17934 -5.4622,0.88969 -7.05934,2.33717 -4.39541,3.98357 0.69919,0.43212 2.60533,2.65921 4.23587,4.94909 l 2.96462,4.16343 -3.73785,-0.93814 c -3.25215,-0.81624 -3.6048,-0.62615 -2.71396,1.46292 1.82673,4.28381 2.4372,10.1743 0.9598,9.26121 -1.97045,-1.2178 -2.70584,9.85072 -1.44284,21.7164 0.6527,6.13194 2.36548,12.58876 4.49278,16.93682 3.94152,8.05616 14.57286,18.26527 21.34979,20.50186 6.02749,1.98925 5.87249,3.72018 -0.37946,4.23762 l -5,0.41382 7.67161,6 7.67161,6 -4.00495,0.41781 c -2.20271,0.2298 -4.00494,0.76757 -4.00494,1.19506 0,0.42749 2.85,3.83947 6.33333,7.58219 5.87132,6.30852 6.11449,6.83602 3.33334,7.23101 -1.65,0.23434 -3,0.95319 -3,1.59744 0,0.64426 3.11062,4.90917 6.91249,9.47759 4.17941,5.02206 5.89274,7.8891 4.33334,7.25128 -7.67749,-3.14023 -9.60622,-1.96131 -4.42975,2.70764 1.54884,1.39699 5.80493,5.9862 9.45798,10.19824 l 6.6419,7.65826 -4.12465,-0.82492 c -5.08711,-1.01743 -5.13607,-0.17664 -0.34839,5.98319 4.98369,6.41203 6.41034,8.8766 4.42976,7.65253 -3.02953,-1.87235 -1.44298,1.95331 4.46065,10.75596 6.33592,9.44722 8.1184,14.78048 3.56168,10.6567 -1.34107,-1.21365 -2.7845,-2.20665 -3.20761,-2.20665 -0.4231,0 1.51552,5.25 4.30806,11.66667 2.79254,6.41667 5.46768,13.16667 5.94475,15 l 0.86741,3.33333 -2.73715,-3.14771 c -1.50542,-1.73124 -2.73714,-2.55128 -2.73714,-1.82231 0,0.72898 2.714,10.78145 6.03111,22.33883 3.31711,11.55738 5.73211,21.31242 5.36667,21.67786 -0.36544,0.36544 -1.85947,-0.77056 -3.32008,-2.52445 -3.4344,-4.124 -3.39232,-3.08433 0.58897,14.55255 3.92469,17.38612 4.19639,21.38246 1.06005,15.5919 -3.34464,-6.17515 -3.47409,-2.22692 -0.47602,14.51867 3.21255,17.94358 3.24641,18.54364 0.79848,14.148 -1.68076,-3.01806 -1.94582,-3.1027 -2.80241,-0.89488 -0.52035,1.34115 -0.58631,6.29115 -0.14659,11 0.82483,8.83296 -0.20169,10.78926 -2.9183,5.56154 -1.22789,-2.36289 -1.44437,1.88163 -1.01936,19.98664 0.50673,21.58599 -0.37924,27.82693 -2.41207,16.99104 -1.86004,-9.91488 -3.04535,-2.40859 -3.94393,24.97604 -1.02168,31.1359 -1.86127,39.62787 -3.64049,36.82123 -0.61886,-0.97622 -1.13438,-3.12495 -1.14561,-4.77495 -0.0112,-1.65 -0.55844,-3 -1.21603,-3 -0.65759,0 -1.93686,5.25 -2.84283,11.66667 -0.90597,6.41667 -2.12991,12.86667 -2.71987,14.33333 -0.98466,2.4479 -1.09549,2.39321 -1.351,-0.66666 -0.15308,-1.83334 -0.13628,-5.35263 0.0373,-7.82066 0.54274,-7.71529 -2.03048,-3.49449 -5.93944,9.74237 -3.15751,10.69222 -3.99651,12.33206 -5.35735,10.471 -1.46587,-2.0047 -1.75911,-1.93463 -3.20424,0.76562 -2.08649,3.89864 -0.49635,8.85782 8.3929,26.175 5.70321,11.11043 8.95623,15.47041 19.51219,26.1519 10.56009,10.6856 14.5537,13.7374 24.00126,18.3411 15.51109,7.5584 29.23958,10.8282 49.33333,11.7502 36.61505,1.68 66.36753,-8.7866 91.73233,-32.2705 24.84696,-23.00447 37.55297,-54.38137 35.88216,-88.60932 -0.89025,-18.23739 -3.84143,-29.26479 -16.19638,-60.51943 -4.67672,-11.83084 -9.72316,-25.50778 -11.21431,-30.39321 -5.47401,-17.93445 -6.594,-38.6572 -2.64995,-49.03065 1.85294,-4.87349 3.22637,-1.65318 4.25158,9.96872 1.53354,17.38439 5.64863,29.41955 20.72433,60.61119 21.56049,44.60864 25.20855,58.10575 23.75511,87.88924 -2.37066,48.57911 -32.69437,92.59096 -80.82978,117.31646 -24.87307,12.7764 -51.16432,18.1428 -83.45509,17.0343 -46.60181,-1.5999 -75.97061,-16.6909 -106.60031,-54.7759 C 720.99542,1009.1588 716.4333,1004 715.92834,1004 c -0.95666,0 -1.86666,6.0118 -3.37262,22.2811 -0.74309,8.0277 -0.3869,11.1488 2.15836,18.9126 2.93181,8.9428 2.96409,9.5181 0.84456,15.0522 -2.46831,6.4449 -7.99569,15.7218 -21.17541,35.5399 -4.92256,7.402 -10.147,15.8043 -11.60987,18.6718 -3.23664,6.3443 -5.77313,7.5243 -8.85472,4.1191 -3.13046,-3.4591 -6.25382,-3.2444 -11.0088,0.7566 -4.77951,4.0217 -5.09783,4.0524 -6.90983,0.6667 z m 38.84134,-39.9393 12.04479,-24.6059 -1.09714,-14.0607 c -0.60343,-7.7334 -0.91836,-18.2608 -0.69986,-23.3941 0.48771,-11.4578 3.66563,-31.27134 5.74908,-35.84402 l 1.54006,-3.38005 6.1442,3.50025 c 7.0725,4.02909 12.14421,8.27331 12.14421,10.16279 0,2.08047 16.4892,26.25493 22.74831,33.35083 7.67128,8.6969 21.2294,18.7831 32.61745,24.265 33.62949,16.1884 89.68134,14.319 126.28371,-4.2117 28.18821,-14.2709 56.39809,-42.9471 66.88913,-67.99498 7.81024,-18.6473 10.66167,-32.30971 10.54275,-50.51479 -0.11855,-18.14921 -2.6348,-32.02735 -8.55976,-47.2106 -4.79936,-12.29879 -18.79385,-41.62824 -19.51754,-40.90455 -0.28648,0.28648 2.73895,7.92959 6.72318,16.98468 8.71245,19.80112 12.29038,30.39989 14.94355,44.26674 2.59545,13.56522 2.545,35.63119 -0.11109,48.58661 -7.08583,34.56203 -31.16593,65.44679 -64.02528,82.11789 -18.79467,9.5354 -32.79223,12.8277 -58.5344,13.7678 -34.13962,1.2467 -61.19123,-6.8085 -84.13382,-25.0526 -12.23992,-9.7333 -25.14905,-25.4223 -28.25955,-34.34508 -0.83136,-2.38484 -2.73295,-5.88882 -4.22577,-7.78662 -1.49281,-1.89781 -2.71421,-4.01731 -2.71421,-4.71 0,-0.6927 -1.51905,-5.05648 -3.37566,-9.69728 l -3.37567,-8.43784 4.89363,-8.90286 c 3.22848,-5.87349 5.24488,-8.33452 5.92592,-7.23258 1.52084,2.46077 5.92501,-5.42954 10.10877,-18.11037 1.93558,-5.86667 3.74378,-10.92287 4.01823,-11.236 0.27445,-0.31313 1.37372,0.58687 2.44282,2 1.85375,2.45028 1.94579,2.39744 1.98623,-1.14016 0.0233,-2.04022 0.9424,-5.8635 2.0424,-8.49617 1.46624,-3.5092 2.0031,-9.99186 2.01159,-24.29051 0.006,-10.7271 0.39181,-22.66951 0.85652,-26.53867 0.81106,-6.75294 0.94417,-6.94502 3.32174,-4.79335 2.40125,2.1731 2.47772,1.71653 2.50647,-14.96516 L 774.72602,814 l 2.74119,3.33333 2.74119,3.33334 -0.80938,-23.33334 C 778.95387,784.5 777.73627,767.7 776.69324,760 c -1.04303,-7.7 -2.26872,-17 -2.72374,-20.66667 l -0.82732,-6.66666 2.76227,3.14771 c 4.10573,4.67864 3.58151,1.60894 -3.39104,-19.85702 -4.38526,-13.50066 -5.70994,-19.21783 -4.61028,-19.89746 1.07159,-0.66228 -0.11131,-4.0761 -3.87162,-11.17344 -4.20102,-7.92916 -4.9417,-10.21979 -3.30456,-10.21979 1.54385,0 0.65605,-2.07287 -3.30841,-7.72459 -6.11443,-8.71673 -6.56268,-10.21898 -2.75182,-9.22241 3.68505,0.96366 3.37787,0.0574 -1.99721,-5.89215 -2.56513,-2.8393 -6.04491,-8.01202 -7.73283,-11.49494 -1.68793,-3.48292 -4.98919,-8.9726 -7.33613,-12.1993 -5.30309,-7.29095 -5.60365,-9.90874 -0.93383,-8.13328 1.83333,0.69703 3.33333,1.05446 3.33333,0.79428 0,-0.26018 -4.22061,-7.76928 -9.37914,-16.68688 -5.15852,-8.9176 -9.01206,-16.80776 -8.56342,-17.53367 0.44864,-0.72592 -1.12729,-3.5328 -3.50206,-6.23752 -4.83717,-5.50923 -17.17327,-30.17935 -17.20288,-34.40288 -0.0105,-1.50333 0.55477,-3.30726 1.25624,-4.00874 0.81166,-0.81166 0.52251,-4.57611 -0.7952,-10.35299 -1.90366,-8.34572 -1.8934,-9.27338 0.12734,-11.50628 2.07073,-2.28812 1.92382,-2.59811 -2.53814,-5.35575 -5.82201,-3.59821 -5.91141,-4.70565 -0.53127,-6.58117 4.13446,-1.44128 4.1636,-1.51135 1.74155,-4.18768 -2.40515,-2.65766 -2.39554,-2.73958 0.40757,-3.4726 2.58983,-0.67726 2.06049,-1.53436 -5.40822,-8.75694 -8.70917,-8.42215 -8.72919,-11.51832 -0.0384,-5.9308 7.32879,4.71184 14.49125,6.65213 20.89608,5.66071 14.48362,-2.24197 29.66389,-14.83878 33.51672,-27.81263 7.88515,-26.5522 -8.69057,-48.87297 -34.0623,-45.86806 -8.95045,1.06005 -13.74387,3.83933 -25.01344,14.50307 -10.3585,9.80166 -14.28455,11.10185 -14.19186,4.69991 0.0289,-1.99652 -0.48407,-3.63005 -1.13996,-3.63005 -0.65589,0 -3.97955,-1.88683 -7.3859,-4.19296 -3.40635,-2.30613 -13.09337,-6.54763 -21.5267,-9.42556 -14.99747,-5.11798 -16.03426,-5.2767 -47.33334,-7.24602 -40.95809,-2.57706 -80.41572,-1.62466 -89.23047,2.15378 -5.67819,2.43396 -5.83276,2.65667 -4.82083,6.94601 3.05703,12.95807 5.85441,22.12517 8.08707,26.50153 5.02166,9.84327 24.39585,23.88004 33.01114,23.91686 2.58059,0.011 2.83958,-0.37437 1.69223,-2.51822 -0.74507,-1.39218 -4.51618,-5.99241 -8.38024,-10.22273 -3.86406,-4.23031 -5.82557,-7.0405 -4.3589,-6.24485 3.05331,1.65637 9.00261,7.89466 14.99309,15.72138 3.17395,4.14686 5.8402,5.92994 11.56588,7.7348 4.09257,1.29007 7.44103,2.91492 7.44103,3.61078 0,0.69586 -2.7,1.2652 -6,1.2652 -3.66919,0 -6,0.60194 -6,1.54953 0,3.72169 16.90024,29.54219 18.63461,28.47029 1.66887,-1.03142 32.92943,14.01212 42.1838,20.30013 22.55144,15.32292 33.21006,31.19225 36.41192,54.21272 3.14785,22.6322 0.84521,40.47712 -7.22028,55.95562 l -4.77044,9.15495 6.56629,6.94288 c 7.64377,8.08216 11.82189,15.65705 13.45362,24.39128 1.06593,5.70564 0.82738,6.71814 -2.83801,12.04561 -2.20097,3.199 -12.718,14.6275 -23.37117,25.39668 -11.95584,12.08602 -22.21126,23.86524 -26.79429,30.77552 -4.08369,6.15736 -10.61189,14.63755 -14.50713,18.84487 -3.89524,4.20732 -7.08225,8.28407 -7.08225,9.05944 0,2.52944 2.78405,3.20513 5.08402,1.2339 5.83502,-5.00099 9.58265,-2.77841 9.58265,5.68313 0,7.20392 1.86823,7.58369 4.65466,0.94619 l 2.36323,-5.6294 0.95022,5.01472 c 1.72589,9.10822 2.3131,8.25982 8.54666,-12.34806 4.10028,-13.55534 7.31878,-19.11573 13.13971,-22.70059 2.39004,-1.47192 13.94552,-5.7205 25.67885,-9.4413 29.82375,-9.4575 48.92344,-18.8474 57.56132,-28.29861 4.66224,-5.10124 7.20063,-9.27986 8.36755,-13.7744 0.92128,-3.54847 2.16681,-7.95176 2.76784,-9.7851 2.08914,-6.3726 1.42604,9.63516 -0.74428,17.96761 -1.12618,4.32367 -1.7842,8.54759 -1.46228,9.38649 0.62753,1.63533 -3.7409,37.79203 -5.63574,46.6459 -2.17774,10.17575 -6.01839,20.06433 -12.61093,32.46955 -5.33317,10.03546 -6.26398,12.69924 -4.76843,13.64625 1.40352,0.88873 1.14338,1.1817 -1.06302,1.19712 -1.60672,0.0112 -3.22849,0.51744 -3.60393,1.12491 -0.37543,0.60747 2.58916,0.83317 6.58798,0.50156 3.99883,-0.33161 7.2706,-0.26382 7.2706,0.15065 0,0.41447 -3.55545,2.64862 -7.901,4.96477 -9.20942,4.90857 -20.90814,16.04535 -28.34511,26.98356 -17.19861,25.29555 -24.93061,68.21807 -19.1478,106.29497 4.15029,27.3276 12.20769,47.34704 31.16926,77.44323 5.81338,9.2271 10.98862,18.0962 11.50054,19.7091 1.13316,3.5703 -4.29925,13.7938 -14.81431,27.8798 -9.44427,12.6516 -15.57075,17.0515 -25.44705,18.2758 -4.22466,0.5237 -9.49058,1.7043 -11.70204,2.6235 -5.61702,2.3348 -15.61776,14.0686 -11.9907,14.0686 0.36032,0 3.27157,-1.9972 6.46944,-4.4382 5.87241,-4.4825 16.04176,-8.2074 20.08545,-7.357 1.80846,0.3803 1.46823,1.3425 -1.92677,5.4491 -5.33343,6.4513 -3.31331,10.9998 2.33147,5.2495 3.84336,-3.9152 10.62444,-8.2368 12.92444,-8.2368 2.46845,0 2.54891,0.5483 0.91603,6.2418 -0.66631,2.3233 -0.83027,4.6054 -0.36435,5.0713 1.94816,1.9482 9.09994,-9.466 20.41716,-32.5857 z M 586.91958,489 c -5.76836,-7.47093 -27.65748,-29.23161 -37.58621,-37.36567 -8.47151,-6.94025 -4.29097,-6.18563 4.98511,0.89985 13.24331,10.11582 31.14315,29.70215 38.20001,41.79915 2.25904,3.87249 -0.57657,1.17138 -5.59891,-5.33333 z m 13.74713,-11.16917 c -9.53334,-7.71298 -21.35885,-16.53022 -26.27893,-19.59388 -4.92007,-3.06366 -8.97007,-6.24792 -9,-7.07615 -0.0299,-0.82823 -5.21977,-3.82823 -11.53299,-6.66667 -6.31321,-2.83844 -10.53314,-5.35095 -9.3776,-5.58337 5.37116,-1.08031 31.35312,15.13258 54.18952,33.81457 8.06251,6.59579 21.32713,19.36664 19.94428,19.20188 -0.33602,-0.04 -8.41095,-6.38341 -17.94428,-14.09638 z m 86.7145,-9.98542 c -2.90703,-2.18459 -5.54117,-4.22764 -5.85365,-4.54012 -0.31248,-0.31248 1.61599,-2.98573 4.2855,-5.94056 2.66951,-2.95483 4.85365,-6.16178 4.85365,-7.12657 0,-0.96479 0.9148,-4.8346 2.03288,-8.5996 3.87004,-13.03185 13.40664,-20.30523 26.6235,-20.30523 8.6613,0 14.71676,2.25364 19.24271,7.1615 l 3.23242,3.50517 -7.23242,0.007 c -10.24896,0.0105 -16.64017,2.13111 -22.57047,7.48878 -6.06636,5.48059 -7.32712,9.92253 -4.83223,17.02501 2.22164,6.32458 1.54225,9.3971 -2.84012,12.84427 -4.72,3.71275 -10.69139,3.17697 -16.94177,-1.52009 z m -78.32163,-15.0475 c -5.43026,-1.46171 -11.54297,-6.1926 -11.68185,-9.04108 -0.0244,-0.50041 3.01594,1.14959 6.7563,3.66667 7.93352,5.33887 10.30842,5.5684 18.1813,1.7572 3.20315,-1.55061 6.12382,-2.51937 6.4904,-2.15279 0.67586,0.67586 -11.10988,7.71429 -12.64029,7.54877 -0.45764,-0.0495 -3.65527,-0.84994 -7.10586,-1.77877 z m -0.39287,-5.35831 c -4.70268,-2.10368 -17.75376,-15.43363 -15.12927,-15.45254 0.98776,-0.007 4.44844,-2.12141 7.69039,-4.69844 10.13148,-8.0535 15.21827,-7.86907 23.49362,0.85177 10.66997,11.24439 12.61193,13.4123 12.61193,14.07937 0,0.37472 -2.29718,0.29319 -5.10485,-0.18116 -3.85334,-0.65101 -5.54566,-0.33131 -6.90289,1.30405 -2.12904,2.56534 -8.47123,6.01243 -10.92605,5.93849 -0.95309,-0.0287 -3.53288,-0.85739 -5.73288,-1.84154 z m 11.56168,-8.31292 c 3.21121,-2.90611 3.07847,-5.60674 -0.46077,-9.37408 -5.16867,-5.5018 -13.10091,-3.4377 -13.10091,3.40908 0,7.07709 8.29924,10.72745 13.56168,5.965 z m -111.7163,-13.0488 c -2.07301,-5.40217 3.96513,-9.77057 11.15461,-8.07001 3.33229,0.7882 4.14318,5.64895 1.4,8.39213 -2.29192,2.29192 -11.64358,2.05198 -12.55461,-0.32212 z m 31.5787,657.60242 c 7.74992,-3.195 23.48333,-8.4542 34.96313,-11.687 11.47981,-3.2329 21.14823,-6.5968 21.48539,-7.4754 0.33717,-0.8787 -0.2867,-5.7046 -1.38635,-10.7244 -4.77661,-21.8045 -3.57628,-50.1054 2.70827,-63.85434 6.67626,-14.60585 16.34176,-21.60831 31.59055,-22.88671 6.89041,-0.57767 9.21493,-1.26941 9.21493,-2.7422 0,-1.08331 -6.53762,-15.54628 -14.52805,-32.13995 -13.85451,-28.77155 -23.39105,-52.25627 -31.60759,-77.83697 -2.06104,-6.41666 -4.1644,-11.66666 -4.67415,-11.66666 -0.50974,0 -5.07516,4.44202 -10.14538,9.87116 -16.49498,17.66267 -22.46226,34.68245 -21.31539,60.7955 0.74571,16.97916 3.65852,28.71002 12.86972,51.83056 3.89065,9.76573 6.65726,20.34514 10.06429,38.48541 2.58427,13.7595 5.57082,28.6174 6.63678,33.0174 1.06596,4.4 1.95948,10.2876 1.9856,13.0836 0.0463,4.9578 -0.15879,5.1769 -8.28583,8.8523 -4.58334,2.0728 -12.53334,5.0783 -17.66667,6.6787 -14.18135,4.4215 -42.68993,10.4313 -46.91601,9.8902 -9.78529,-1.2528 -14.81818,-0.6904 -20.48286,2.2888 -4.94255,2.5995 -5.45014,3.1973 -3.03683,3.5764 1.5937,0.2504 5.1937,-0.6722 8,-2.0502 3.2228,-1.5825 6.52979,-2.2257 8.97734,-1.746 l 3.87499,0.7595 -3.64489,1.9472 c -4.43119,2.3673 -7.95565,7.7921 -3.92686,6.0442 5.52033,-2.3951 20.13971,-5.8423 25.08282,-5.9145 l 5.26104,-0.077 -6.10178,3.8696 c -6.81011,4.3189 -9.80106,7.7294 -5.62879,6.4185 1.398,-0.4393 8.88267,-3.4128 16.63258,-6.6078 z M 645.33338,925.13076 c 0,-24.58245 2.67672,-40.86409 9.86375,-59.99814 6.01308,-16.0086 11.40154,-24.42871 26.19599,-40.93428 19.43834,-21.68656 26.21454,-32.89825 32.3676,-53.5544 4.05685,-13.61905 4.36007,-15.14303 6.89292,-34.64394 2.54414,-19.58781 2.51314,-20.18423 -0.78188,-15.03965 -6.22396,9.71759 -23.17763,17.98741 -60.72888,29.62294 -11.10478,3.4409 -21.80506,7.31407 -23.7784,8.60705 -4.33863,2.84278 -7.83466,10.24924 -10.86145,23.01033 -2.13592,9.00517 -2.13228,10.06506 0.0656,19.10782 1.27981,5.2656 1.91954,9.9753 1.42163,10.466 -0.49792,0.4907 -2.7994,-1.35785 -5.11441,-4.10788 -2.315,-2.75003 -4.62916,-5.00003 -5.14256,-5 -0.51341,3e-5 -1.12466,3.45006 -1.35835,7.66672 L 613.95002,818 l -3.95764,-8 -3.95764,-8 -0.68402,9.14476 -0.68401,9.14475 -3.66652,-7.50733 c -5.50933,-11.28054 -6.45412,-17.0921 -4.19112,-25.78033 1.05743,-4.05974 1.70097,-7.60296 1.43009,-7.87384 -0.27087,-0.27087 -2.16089,3.43307 -4.20003,8.23099 -3.25292,7.65383 -3.59659,9.74026 -2.80273,17.01558 2.30347,21.11018 12.92762,59.00896 24.37712,86.95875 8.22861,20.08716 26.96005,56.88161 28.47944,55.94258 0.68223,-0.42164 1.24042,-10.38696 1.24042,-22.14515 z M 592.20579,759 c 3.35803,-3.48333 8.68328,-10.23333 11.83389,-15 3.15061,-4.76667 14.89137,-18.0662 26.09059,-29.55453 23.6003,-24.20955 25.03116,-26.81566 21.20075,-38.61435 -2.70106,-8.31996 -6.00534,-14.28145 -12.23286,-22.07015 -4.33156,-5.41744 -4.37297,-5.58425 -1.48926,-6 7.27,-1.04813 14.25497,-19.75461 15.35224,-41.11487 1.55465,-30.26414 -10.14624,-55.10101 -33.45243,-71.00775 -7.82635,-5.34157 -40.89721,-22.69425 -41.7072,-21.88427 -0.21434,0.21434 2.05211,3.34464 5.03654,6.95623 8.85184,10.71194 12.27677,18.63027 12.38038,28.62302 0.11209,10.81075 -4.24622,19.4689 -14.8469,29.49457 -3.95394,3.73948 -6.88568,7.10236 -6.51497,7.47307 0.37071,0.37071 2.59418,0.005 4.94105,-0.81348 2.34686,-0.81812 4.82412,-1.48749 5.505,-1.48749 0.68089,0 -2.10864,6.23912 -6.19896,13.86471 -4.09032,7.62559 -7.43694,14.22559 -7.43694,14.66666 0,0.44108 1.35,0.80147 3,0.80086 l 3,-10e-4 -0.3996,35.66777 c -0.35317,31.52277 -0.0103,38.84423 2.95031,63.00111 1.84245,15.03333 3.75447,33.18333 4.24894,40.33333 0.49447,7.15 1.28938,13 1.76648,13 0.47709,0 3.61492,-2.85 6.97295,-6.33333 z m -22.73426,-70.84803 c 1.98304,-5.1888 3.00869,-11.37145 3.34305,-20.15197 1.25324,-32.9109 1.39087,-50.53897 0.38975,-49.92025 -0.6029,0.37262 -3.01895,4.28496 -5.36899,8.69409 -2.35005,4.40914 -6.64653,10.39033 -9.54775,13.29155 -4.30649,4.30649 -4.97963,5.63076 -3.66646,7.21303 4.62574,5.57368 -4.95549,6.13393 -25.43763,1.48745 -19.38671,-4.39798 -26.14035,-7.83132 -31.45617,-15.99129 -2.34999,-3.60732 -3.94827,-7.08371 -3.55174,-7.72531 1.01597,-1.64387 -3.20194,-7.71594 -5.35982,-7.71594 -0.98419,0 -3.315,-1.2 -5.17956,-2.66666 C 481.77164,613.2 478.94673,612 477.35863,612 c -4.20034,0 -2.92194,4.20317 1.99104,6.54625 4.57184,2.18039 5.78745,3.60721 10.89422,12.78708 2.26039,4.06326 3.97828,9.53042 4.39908,14 l 0.6904,7.33334 27.0957,18.19621 c 14.90263,10.00792 29.90263,20.59468 33.33333,23.52614 5.69453,4.86584 6.43837,5.15222 8.54303,3.28908 1.26796,-1.12245 3.59271,-5.40921 5.1661,-9.52613 z m -100.8114,-25.48281 c 5.45275,-2.07313 2.62536,-4.00249 -5.86547,-4.00249 -8.08459,0 -9.92555,-1.07947 -13.45663,-7.89043 -1.78801,-3.44882 -2.26008,-17.51365 -0.76752,-22.86755 l 0.9038,-3.24202 -2.73714,3.14771 c -2.14966,2.47211 -2.73714,4.98534 -2.73714,11.70949 0,10.28759 2.18509,16.04527 7.921,20.87172 4.57756,3.85176 10.47966,4.65341 16.7391,2.27357 z m 9.82879,-11.25421 c -4.0409,-3.67687 -14.35081,-8.71705 -15.15835,-7.41043 -2.67434,4.32717 9.21042,12.7248 14.49168,10.23966 2.0832,-0.98027 2.19187,-1.44143 0.66667,-2.82923 z m 0.10414,-11.33646 c -0.14666,-1.48395 -13.7469,-10.60143 -14.82235,-9.93676 -2.06604,1.27688 -1.11188,4.35199 2.56266,8.25902 5.59488,5.94889 8.6548,7.27452 10.66666,4.62107 0.91667,-1.20899 1.63353,-2.53349 1.59303,-2.94333 z m 4.39105,-9.27909 c 0.54124,-0.49548 -2.61299,-4.06714 -7.00939,-7.93701 -5.93671,-5.22571 -8.67448,-6.81998 -10.64024,-6.19608 -2.44377,0.77562 -2.49941,1.12505 -0.72539,4.55562 3.16417,6.11883 11.14127,12.36293 14.50018,11.35006 1.58992,-0.47944 3.3336,-1.27711 3.87484,-1.77259 z m 76.43621,-136.80391 c -4.73862,-6.21266 -11.42964,-11.13069 -16.53163,-12.15109 -4.94116,-0.98823 -5.7024,1.42344 -1.88865,5.98338 2.8963,3.46298 20.83131,13.37611 21.45878,11.8608 0.25233,-0.60936 -1.11499,-3.17125 -3.0385,-5.69309 z M 92.693845,478.55968 c 8.520135,-9.8394 16.337505,-16.96857 29.178085,-26.60942 17.46119,-13.11004 17.64338,-13.20522 40.63068,-21.22634 l 23.09083,-8.05725 h 24.32462 c 37.37614,0 43.37064,-1.13189 63.41529,-11.97416 9.16667,-4.95831 21.15617,-11.27031 26.64333,-14.02668 5.48717,-2.75637 19.34443,-11.14985 30.79392,-18.65218 l 20.81726,-13.6406 35.20609,-2.79333 c 19.36334,-1.53633 42.10608,-3.15236 50.53941,-3.59117 l 15.33334,-0.79785 26.53705,-12.09552 26.53705,-12.09551 11.13162,0.90322 11.13162,0.90321 30.40387,-10.60169 30.40388,-10.60168 25.92746,-2.13192 25.92746,-2.13192 44.66667,4.90469 44.66667,4.90469 16.91455,-8.1084 c 15.32145,-7.34471 19.00734,-8.51473 39.13434,-12.4225 21.5832,-4.1905 22.64792,-4.27069 37.16358,-2.79907 8.21909,0.83327 21.80864,1.51812 30.199,1.52188 11.16601,0.005 19.45601,0.89853 30.92678,3.33334 8.61937,1.82956 16.5424,3.32648 17.60675,3.32648 1.06434,0 -11.38787,-13.32377 -27.67158,-29.60839 -27.44127,-27.44278 -32.04479,-31.41327 -62.94008,-54.28504 -27.71238,-20.51547 -37.7854,-27.08822 -59.73491,-38.97765 -36.11996,-19.56516 -75.45161,-35.07264 -113.59844,-44.789 -27.42164,-6.98455 -28.82623,-7.19727 -68,-10.29837 -36.58505,-2.89618 -43.07347,-3.05693 -76.00001,-1.88287 -19.8,0.706 -41.7,2.13713 -48.66667,3.18028 -15.58537,2.33367 -50.41317,14.57815 -85.25939,29.97482 -22.75287,10.05326 -27.22364,12.65498 -59.75926,34.77621 C 280.97311,205.24049 264.43602,216 263.56562,216 c -0.8704,0 -19.07699,17.55 -40.45908,39 l -38.87652,39 -21.15888,32.66667 c -20.1059,31.04101 -21.99947,34.55773 -38.05026,70.66666 -9.29026,20.9 -23.22052,50.3665 -30.956132,65.4811 C 80.722414,488.88401 79.277144,492 80.527804,492 c 0.29029,0 5.765008,-6.04814 12.166041,-13.44032 z M 439.70458,115.89717 c 0.42219,-3.67412 -7.15279,-54.456516 -8.29313,-55.596856 -2.72736,-2.727363 -2.54118,0.692627 2.7418,50.366356 0.42896,4.03333 1.07495,7.815 1.43554,8.40371 1.22844,2.0056 3.74351,0.0665 4.11579,-3.17321 z"
       id="path1" />
  </g>
</svg>
